<svg width="766" height="395" viewBox="0 0 766 395" fill="none" xmlns="http://www.w3.org/2000/svg">
<path d="M7.64 91V1.59999H23.24L56.72 47.08H49.28L82.04 1.59999H97.64V91H81.2V20.2L87.56 21.76L53.6 67H51.68L18.56 21.76L23.96 20.2V91H7.64ZM156.389 92.44C149.829 92.44 143.709 91.28 138.029 88.96C132.349 86.64 127.389 83.4 123.149 79.24C118.909 75.08 115.589 70.2 113.189 64.6C110.869 58.92 109.709 52.8 109.709 46.24C109.709 39.6 110.869 33.48 113.189 27.88C115.509 22.28 118.789 17.4 123.029 13.24C127.269 9.08 132.229 5.87999 137.909 3.63999C143.589 1.32 149.749 0.159997 156.389 0.159997C163.029 0.159997 169.189 1.32 174.869 3.63999C180.549 5.95999 185.509 9.19999 189.749 13.36C193.989 17.44 197.269 22.28 199.589 27.88C201.989 33.48 203.189 39.6 203.189 46.24C203.189 52.8 201.989 58.92 199.589 64.6C197.189 70.2 193.869 75.08 189.629 79.24C185.389 83.4 180.429 86.64 174.749 88.96C169.149 91.28 163.029 92.44 156.389 92.44ZM156.389 77.56C160.789 77.56 164.829 76.8 168.509 75.28C172.189 73.68 175.389 71.48 178.109 68.68C180.909 65.88 183.029 62.56 184.469 58.72C185.989 54.88 186.749 50.72 186.749 46.24C186.749 41.76 185.989 37.64 184.469 33.88C183.029 30.04 180.909 26.72 178.109 23.92C175.389 21.04 172.189 18.84 168.509 17.32C164.829 15.8 160.789 15.04 156.389 15.04C152.069 15.04 148.069 15.8 144.389 17.32C140.709 18.84 137.469 21.04 134.669 23.92C131.949 26.72 129.829 30.04 128.309 33.88C126.789 37.64 126.029 41.76 126.029 46.24C126.029 50.72 126.789 54.88 128.309 58.72C129.829 62.56 131.949 65.88 134.669 68.68C137.469 71.48 140.709 73.68 144.389 75.28C148.069 76.8 152.069 77.56 156.389 77.56ZM215.301 91V1.59999H244.461C253.901 1.59999 262.101 3.51999 269.061 7.36C276.101 11.12 281.541 16.36 285.381 23.08C289.221 29.72 291.141 37.44 291.141 46.24C291.141 54.96 289.221 62.72 285.381 69.52C281.541 76.24 276.101 81.52 269.061 85.36C262.101 89.12 253.901 91 244.461 91H215.301ZM231.621 76.6H244.821C250.901 76.6 256.141 75.36 260.541 72.88C265.021 70.32 268.501 66.8 270.981 62.32C273.461 57.76 274.701 52.4 274.701 46.24C274.701 40 273.461 34.64 270.981 30.16C268.501 25.68 265.021 22.2 260.541 19.72C256.141 17.24 250.901 16 244.821 16H231.621V76.6ZM301.729 91V1.59999H361.129V16H318.049V38.92H358.729V53.32H318.049V76.6H361.129V91H301.729ZM370.696 91V1.59999H403.936C410.016 1.59999 415.376 2.71999 420.016 4.96C424.736 7.12 428.416 10.32 431.056 14.56C433.696 18.72 435.016 23.8 435.016 29.8C435.016 35.96 433.536 41.2 430.576 45.52C427.696 49.84 423.776 53.04 418.816 55.12L439.336 91H420.856L398.896 51.76L409.456 58H387.016V91H370.696ZM387.016 43.6H404.176C407.136 43.6 409.696 43.04 411.856 41.92C414.016 40.72 415.696 39.08 416.896 37C418.096 34.92 418.696 32.52 418.696 29.8C418.696 27 418.096 24.6 416.896 22.6C415.696 20.52 414.016 18.92 411.856 17.8C409.696 16.6 407.136 16 404.176 16H387.016V43.6ZM447.632 91V1.59999H460.352L509.552 67.84L502.952 69.16V1.59999H519.272V91H506.432L457.952 24.28L463.952 22.96V91H447.632ZM545.786 91L576.626 1.59999H597.746L628.586 91H610.826L604.466 71.8H569.906L563.426 91H545.786ZM574.586 57.4H599.786L584.906 12.88H589.466L574.586 57.4ZM636.135 91V1.59999H669.375C675.455 1.59999 680.815 2.71999 685.455 4.96C690.175 7.12 693.855 10.32 696.495 14.56C699.135 18.72 700.455 23.8 700.455 29.8C700.455 35.96 698.975 41.2 696.015 45.52C693.135 49.84 689.215 53.04 684.255 55.12L704.775 91H686.295L664.335 51.76L674.895 58H652.455V91H636.135ZM652.455 43.6H669.615C672.575 43.6 675.135 43.04 677.295 41.92C679.455 40.72 681.135 39.08 682.335 37C683.535 34.92 684.135 32.52 684.135 29.8C684.135 27 683.535 24.6 682.335 22.6C681.135 20.52 679.455 18.92 677.295 17.8C675.135 16.6 672.575 16 669.615 16H652.455V43.6ZM726.568 91V16H703.408V1.59999H765.808V16H743.008V91H726.568ZM24.32 242L0.32 152.6H17.84L36.68 228.8H32.12L51.8 152.6H68.72L88.28 228.8H83.72L102.56 152.6H120.08L96.08 242H77.36L57.56 167.84H62.84L43.04 242H24.32ZM127.584 242V152.6H143.904V242H127.584ZM174.539 242V167H151.379V152.6H213.779V167H190.979V242H174.539ZM221.338 242V152.6H237.658V191.6H275.698V152.6H292.138V242H275.698V206H237.658V242H221.338ZM333.465 163.777C333.66 164.441 334.129 164.988 334.871 165.418C335.809 165.965 337.234 166.238 339.148 166.238L344.188 166.18L346.473 166.355L351.277 166.238L357.605 166.297L361.883 166.062L367.684 166.238L372.605 166.004C373.152 166.004 373.797 166.023 374.539 166.062C376.844 166.141 378.23 166.18 378.699 166.18C379.246 166.18 380.105 166.16 381.277 166.121C382.449 166.043 384.871 165.984 388.543 165.945C392.215 165.867 394.988 165.125 396.863 163.719L397.801 163.895H399.09C398.387 167.762 397.664 170.984 396.922 173.562C396.531 175.047 396.258 176.258 396.102 177.195C395.984 177.898 395.77 178.973 395.457 180.418C394.598 180.379 393.836 180.281 393.172 180.125C393.133 175.672 392.273 172.605 390.594 170.926C388.914 169.246 385.691 168.406 380.926 168.406C376.746 168.406 372.938 168.602 369.5 168.992C368.445 169.148 367.605 169.344 366.98 169.578C366.824 170.008 366.688 170.398 366.57 170.75C366.062 172.703 365.262 178.25 364.168 187.391C363.855 190.164 362.391 198.797 359.773 213.289L355.438 234.5C355.281 235.555 355.164 236.199 355.086 236.434C354.852 237.293 354.734 237.918 354.734 238.309C354.734 238.855 354.949 239.266 355.379 239.539C356.199 240.008 357.801 240.262 360.184 240.301C360.73 240.301 362.234 240.398 364.695 240.594C366.219 240.711 367.098 240.828 367.332 240.945C367.488 241.023 367.625 241.18 367.742 241.414L367.449 243.289C364.793 243.25 362.664 243.133 361.062 242.938C359.461 242.742 358.172 242.645 357.195 242.645C350.711 242.645 342.781 242.82 333.406 243.172C333.641 242.312 333.953 241.531 334.344 240.828C336.297 240.555 338.426 240.359 340.73 240.242C341.277 240.086 342 239.91 342.898 239.715C344.227 239.441 345.066 239.168 345.418 238.895C345.77 238.582 346.082 238.094 346.355 237.43C347.527 234.539 348.777 228.172 350.105 218.328L355.496 188.152C357.215 178.426 358.152 172.059 358.309 169.051C357.137 168.855 355.867 168.758 354.5 168.758C347.117 168.758 342.273 169.031 339.969 169.578C337.664 170.125 335.73 171.023 334.168 172.273C332.645 173.484 330.457 176.102 327.605 180.125C326.902 180.008 326.219 179.93 325.555 179.891C325.867 178.836 326.219 177.84 326.609 176.902C328.328 172.684 329.812 168.289 331.062 163.719H332.703L333.465 163.777ZM401.084 198.934C399.795 199.871 398.584 200.965 397.452 202.215C397.139 202.566 395.362 204.91 392.12 209.246L389.717 209.363C390.694 207.254 392.51 204.656 395.166 201.57C397.823 198.484 400.127 196.375 402.08 195.242C403.33 194.5 404.737 194.07 406.299 193.953C407.276 194.227 407.94 194.598 408.291 195.066C408.682 195.535 408.877 196.102 408.877 196.766C408.877 197.43 408.799 198.094 408.643 198.758C408.213 200.906 407.354 203.973 406.065 207.957C404.776 211.941 403.623 215.086 402.608 217.391L399.561 224.598L399.327 225.652C399.873 224.715 400.987 222.625 402.666 219.383C409.034 207.312 413.623 199.852 416.436 197C418.506 194.969 420.928 193.953 423.702 193.953C425.264 193.953 426.729 194.578 428.096 195.828C429.112 196.805 429.62 198.094 429.62 199.695C429.62 201.492 429.053 203.035 427.92 204.324C427.139 205.223 426.026 205.672 424.58 205.672C423.37 205.672 422.51 205.398 422.002 204.852C421.534 204.266 421.241 202.84 421.123 200.574C420.616 199.559 420.049 199.051 419.424 199.051C418.799 199.051 418.135 199.383 417.432 200.047C415.557 201.727 412.022 207.117 406.827 216.219C401.631 225.281 398.37 231.59 397.041 235.145C395.752 238.66 394.698 241.082 393.877 242.41C393.448 243.074 392.647 243.406 391.475 243.406C390.42 243.406 389.659 243.211 389.19 242.82C388.76 242.469 388.545 242 388.545 241.414C388.545 240.633 388.741 239.734 389.131 238.719C390.811 234.617 393.506 227.059 397.217 216.043L401.319 203.504C401.592 202.371 401.788 201.648 401.905 201.336L402.256 200.457C402.256 200.066 401.866 199.559 401.084 198.934ZM460.266 199.578C460.657 198.914 460.911 198.387 461.028 197.996C461.497 196.824 461.966 196.062 462.434 195.711C463.528 195.594 464.329 195.535 464.837 195.535C465.501 195.535 466.145 195.672 466.77 195.945L466.946 196.648C466.946 196.883 466.848 197.234 466.653 197.703C466.536 197.938 466.282 198.68 465.891 199.93L465.423 201.102L461.555 211.59C459.915 216.316 458.47 220.086 457.22 222.898C456.009 225.711 454.954 228.582 454.055 231.512C453.157 234.402 452.337 236.473 451.595 237.723L451.36 238.309C451.36 238.543 451.575 238.855 452.005 239.246C453.763 238.27 455.247 237.215 456.458 236.082C459.583 233.152 461.438 231.336 462.024 230.633C462.454 230.125 462.864 229.656 463.255 229.227C463.723 229.617 464.153 230.027 464.544 230.457C463.45 231.98 461.614 234.051 459.036 236.668C456.458 239.285 454.134 241.141 452.063 242.234C450.462 243.055 448.958 243.465 447.552 243.465C446.653 243.465 445.97 243.27 445.501 242.879C445.071 242.488 444.856 241.98 444.856 241.355C444.856 240.809 445.052 239.793 445.442 238.309C446.419 235.73 447.102 234.031 447.493 233.211C447.884 232.391 448.411 231.121 449.075 229.402C449.466 228.348 450.266 226.512 451.477 223.895C450.735 224.637 449.817 225.73 448.723 227.176C445.559 231.16 441.927 234.93 437.825 238.484C436.888 239.305 434.622 240.613 431.028 242.41C429.7 242.918 428.138 243.25 426.341 243.406C424.817 243.367 423.802 243.211 423.294 242.938C422.356 242.43 421.595 241.629 421.009 240.535C420.579 239.715 420.364 238.445 420.364 236.727C420.364 234.227 420.911 231.453 422.005 228.406C423.88 223.211 425.774 219.363 427.688 216.863C430.97 212.527 434.212 209.09 437.415 206.551C440.657 204.012 443.626 202.156 446.321 200.984C449.876 199.422 452.962 198.641 455.579 198.641C456.438 198.641 457.259 198.719 458.04 198.875C458.821 199.031 459.563 199.266 460.266 199.578ZM432.376 238.016C433.313 237.781 434.134 237.449 434.837 237.02C435.266 236.785 436.79 235.711 439.407 233.797C444.173 228.992 446.868 226.238 447.493 225.535C448.86 224.012 450.403 221.922 452.122 219.266C452.591 218.602 453.587 216.766 455.11 213.758L456.634 209.715C457.18 207.332 457.454 205.965 457.454 205.613C457.454 204.52 457.005 203.484 456.106 202.508C455.52 201.922 454.563 201.629 453.235 201.629C451.712 201.629 450.403 201.883 449.309 202.391C446.848 203.562 444.602 205.047 442.571 206.844C439.837 209.305 437.2 212.469 434.661 216.336C432.122 220.164 430.325 223.367 429.27 225.945C427.825 229.5 427.102 232.156 427.102 233.914C427.102 235.359 427.395 236.434 427.981 237.137C428.567 237.84 429.309 238.191 430.208 238.191C430.52 238.191 431.243 238.133 432.376 238.016ZM505.737 200.398L512.066 180.184C512.339 179.324 512.73 177.918 513.237 175.965C513.316 175.574 513.394 175.262 513.472 175.027C514.292 172.449 514.702 170.809 514.702 170.105C514.702 169.598 514.448 169.129 513.941 168.699C512.886 167.879 511.109 167.176 508.609 166.59L507.378 166.238L507.847 164.598C514.487 164.598 518.902 164.148 521.089 163.25L521.792 163.191C522.261 163.191 522.769 163.27 523.316 163.426C523.042 164.598 522.847 165.398 522.73 165.828L522.671 166.18L517.808 180.711L511.948 199.461C510.894 202.664 510.191 205.027 509.839 206.551C509.331 208.816 508.745 210.926 508.081 212.879L499.761 237.781L499.937 238.133C501.343 237.898 504.937 234.598 510.718 228.23C511.343 228.504 511.812 228.855 512.124 229.285C508.882 234.168 505.249 238.113 501.226 241.121C498.335 243.27 496.167 244.344 494.722 244.344C494.409 244.344 493.98 244.266 493.433 244.109C493.198 243.758 493.081 243.445 493.081 243.172C493.081 242 493.745 239.285 495.073 235.027C496.402 230.77 497.32 227.684 497.827 225.77C496.773 226.746 495.23 228.367 493.198 230.633C489.331 234.969 485.249 238.543 480.952 241.355C477.866 243.387 475.073 244.402 472.573 244.402C471.206 244.402 470.132 243.855 469.351 242.762C468.101 241.082 467.476 238.719 467.476 235.672C467.476 231.883 468.335 227.977 470.054 223.953C471.07 221.492 472.749 218.328 475.093 214.461C477.476 210.594 480.112 207.234 483.003 204.383C485.933 201.492 488.706 199.422 491.323 198.172C493.98 196.883 496.382 196.238 498.53 196.238C500.21 196.238 501.695 196.629 502.984 197.41C503.843 197.918 504.761 198.914 505.737 200.398ZM478.96 238.367C480.523 238.367 482.339 237.645 484.409 236.199C488.198 233.543 491.753 230.027 495.073 225.652C498.433 221.238 500.777 216.844 502.105 212.469C503.472 208.094 504.155 205.496 504.155 204.676C504.155 203.426 503.667 202.234 502.691 201.102C501.714 199.969 500.816 199.402 499.995 199.402C498.55 199.402 496.792 199.91 494.722 200.926C492.691 201.941 490.542 203.68 488.277 206.141C486.987 207.508 485.015 210.359 482.359 214.695C479.702 219.031 477.73 222.762 476.441 225.887C475.152 229.012 474.507 231.414 474.507 233.094C474.507 234.734 474.917 236.023 475.737 236.961C476.597 237.898 477.671 238.367 478.96 238.367ZM533.396 172.684C533.396 171.316 533.923 170.105 534.978 169.051C536.033 167.957 537.263 167.41 538.67 167.41C539.998 167.41 541.13 167.879 542.068 168.816C543.005 169.754 543.474 170.828 543.474 172.039C543.474 173.602 542.888 175.027 541.716 176.316C541.013 177.059 539.724 177.43 537.849 177.43C536.599 177.43 535.545 177 534.685 176.141C533.826 175.281 533.396 174.129 533.396 172.684ZM531.111 198.992C530.291 198.992 529.685 199.051 529.295 199.168C527.459 200.145 526.111 200.984 525.252 201.688C523.494 203.055 521.834 204.656 520.271 206.492L516.873 207.254C519.88 203.191 523.22 200.008 526.892 197.703C530.564 195.398 533.455 194.246 535.564 194.246C536.462 194.246 537.127 194.48 537.556 194.949C538.025 195.379 538.259 195.945 538.259 196.648C538.259 198.562 537.166 201.746 534.978 206.199C534.705 206.746 534.06 208.152 533.045 210.418C530.701 215.535 528.201 220.379 525.545 224.949C524.685 226.434 523.748 228.191 522.732 230.223C522.185 231.316 521.697 232.234 521.267 232.977C520.056 235.008 519.451 236.512 519.451 237.488C519.451 237.762 519.548 238.016 519.744 238.25C519.978 238.445 520.252 238.543 520.564 238.543C520.994 238.543 521.619 238.309 522.439 237.84C523.806 237.059 525.427 235.77 527.302 233.973C529.216 232.137 530.896 230.047 532.341 227.703H534.744C533.611 229.812 531.931 232.234 529.705 234.969C527.517 237.703 525.017 239.891 522.205 241.531C520.095 242.781 518.22 243.406 516.58 243.406C515.33 243.406 514.412 243.133 513.826 242.586C513.24 242.078 512.947 241.395 512.947 240.535C512.947 237.527 515.154 231.863 519.568 223.543L529.002 205.73C529.978 203.895 530.662 202.449 531.052 201.395C531.287 200.73 531.404 200.281 531.404 200.047C531.404 199.852 531.306 199.5 531.111 198.992ZM555.254 199.402H551.855L550.215 199.344L546.406 199.461H545.645C545.723 198.602 546.055 197.605 546.641 196.473C552.266 196.316 555.605 196.18 556.66 196.062C557.441 194.188 558.105 192.684 558.652 191.551C559.824 189.012 561.035 186.004 562.285 182.527C562.676 181.395 563.105 180.359 563.574 179.422C564.434 179.305 565.43 179.246 566.562 179.246C567.5 179.246 568.398 179.344 569.258 179.539L569.375 180.477C569.375 181.219 567.617 185.516 564.102 193.367C563.711 194.266 563.379 195.184 563.105 196.121C564.238 196.316 564.902 196.414 565.098 196.414H566.328L568.32 196.473L573.945 196.355C573.945 197.645 573.711 198.699 573.242 199.52C571.68 199.676 569.629 199.754 567.09 199.754C565.84 199.754 565.039 199.773 564.688 199.812C562.695 200.008 561.543 200.203 561.23 200.398L551.504 223.133C550.488 225.359 548.691 229.598 546.113 235.848C546.113 236.082 546.23 236.355 546.465 236.668L547.227 236.785C548.281 236.785 549.59 236.121 551.152 234.793C554.629 231.863 557.91 228.445 560.996 224.539C561.66 224.891 562.246 225.301 562.754 225.77C558.809 230.496 556.035 233.621 554.434 235.145C552.832 236.629 550.801 238.191 548.34 239.832C545.879 241.434 544.395 242.332 543.887 242.527C542.988 242.879 542.07 243.055 541.133 243.055C540.156 243.055 539.434 242.84 538.965 242.41C538.496 242.02 538.262 241.434 538.262 240.652C538.262 239.52 539.219 236.883 541.133 232.742L543.652 227.293L552.5 206.492C553.633 203.797 554.551 201.434 555.254 199.402ZM586.135 172.684C586.135 171.316 586.662 170.105 587.717 169.051C588.772 167.957 590.002 167.41 591.409 167.41C592.737 167.41 593.87 167.879 594.807 168.816C595.745 169.754 596.213 170.828 596.213 172.039C596.213 173.602 595.627 175.027 594.455 176.316C593.752 177.059 592.463 177.43 590.588 177.43C589.338 177.43 588.284 177 587.424 176.141C586.565 175.281 586.135 174.129 586.135 172.684ZM583.85 198.992C583.03 198.992 582.424 199.051 582.034 199.168C580.198 200.145 578.85 200.984 577.991 201.688C576.233 203.055 574.573 204.656 573.01 206.492L569.612 207.254C572.62 203.191 575.959 200.008 579.631 197.703C583.303 195.398 586.194 194.246 588.303 194.246C589.202 194.246 589.866 194.48 590.295 194.949C590.764 195.379 590.998 195.945 590.998 196.648C590.998 198.562 589.905 201.746 587.717 206.199C587.444 206.746 586.799 208.152 585.784 210.418C583.44 215.535 580.94 220.379 578.284 224.949C577.424 226.434 576.487 228.191 575.471 230.223C574.924 231.316 574.436 232.234 574.006 232.977C572.795 235.008 572.19 236.512 572.19 237.488C572.19 237.762 572.287 238.016 572.483 238.25C572.717 238.445 572.991 238.543 573.303 238.543C573.733 238.543 574.358 238.309 575.178 237.84C576.545 237.059 578.166 235.77 580.041 233.973C581.955 232.137 583.635 230.047 585.08 227.703H587.483C586.35 229.812 584.67 232.234 582.444 234.969C580.256 237.703 577.756 239.891 574.944 241.531C572.834 242.781 570.959 243.406 569.319 243.406C568.069 243.406 567.151 243.133 566.565 242.586C565.979 242.078 565.686 241.395 565.686 240.535C565.686 237.527 567.893 231.863 572.307 223.543L581.741 205.73C582.717 203.895 583.401 202.449 583.791 201.395C584.026 200.73 584.143 200.281 584.143 200.047C584.143 199.852 584.045 199.5 583.85 198.992ZM628.97 208.719C628.97 217.781 626.216 225.828 620.708 232.859C615.239 239.891 609.555 243.406 603.657 243.406C600.493 243.406 597.934 242.234 595.981 239.891C594.028 237.508 593.052 233.797 593.052 228.758C593.052 225.359 593.813 221.453 595.337 217.039C596.86 212.586 598.833 208.895 601.255 205.965C601.802 205.301 602.427 204.5 603.13 203.562C605.2 200.867 607.661 198.602 610.513 196.766C613.364 194.93 616.274 194.012 619.243 194.012C621.977 194.012 624.282 195.164 626.157 197.469C628.032 199.734 628.97 203.484 628.97 208.719ZM598.501 235.379C598.501 237.176 598.911 238.504 599.731 239.363C600.591 240.223 601.958 240.652 603.833 240.652C605.669 240.652 607.524 239.754 609.399 237.957C612.759 234.676 616.118 229.031 619.477 221.023C622.837 213.016 624.516 206.707 624.516 202.098C624.516 200.457 624.106 199.168 623.286 198.23C622.466 197.254 621.528 196.766 620.473 196.766C618.169 196.766 615.766 198.113 613.266 200.809C609.009 205.34 605.337 211.59 602.251 219.559C599.751 226.043 598.501 231.316 598.501 235.379ZM647.722 201.395C647.644 201.082 647.527 200.867 647.37 200.75C647.253 200.633 647.097 200.574 646.902 200.574C644.87 200.574 641.706 203.777 637.409 210.184C636.98 210.223 636.667 210.242 636.472 210.242C636.237 210.242 635.847 210.223 635.3 210.184C636.12 208.543 637.448 206.473 639.284 203.973C641.159 201.473 643.132 199.402 645.202 197.762C647.312 196.082 649.304 194.832 651.179 194.012C651.804 193.738 652.37 193.602 652.878 193.602C653.073 193.602 653.366 193.621 653.757 193.66C654.46 194.363 654.812 195.086 654.812 195.828C654.812 196.297 654.753 196.766 654.636 197.234C654.558 197.703 654.362 198.426 654.05 199.402C652.878 202.762 652.019 205.125 651.472 206.492L648.132 215.164C647.351 217.156 646.589 219.266 645.847 221.492C646.159 221.102 646.433 220.73 646.667 220.379C650.3 215.066 654.206 209.988 658.386 205.145C662.605 200.262 666.081 197 668.816 195.359C670.769 194.148 672.624 193.543 674.382 193.543C675.71 193.543 676.745 193.914 677.487 194.656C678.23 195.359 678.601 196.277 678.601 197.41C678.601 198.113 678.523 198.797 678.366 199.461C678.093 200.945 677.487 203.016 676.55 205.672C675.612 208.328 673.152 214.09 669.167 222.957L663.308 236.492L663.073 237.254C663.073 237.488 663.21 237.84 663.484 238.309C665.671 237.84 668.952 234.363 673.327 227.879L675.73 227.938C674.519 230.125 672.527 232.938 669.753 236.375C667.605 238.992 665.3 241.023 662.839 242.469C661.472 243.289 660.007 243.699 658.445 243.699C657.507 243.699 656.804 243.504 656.335 243.113C655.866 242.723 655.632 242.293 655.632 241.824C655.632 239.754 656.628 236.551 658.62 232.215L667.116 213.641L670.398 205.848C671.14 204.129 671.589 202.938 671.745 202.273C671.902 201.609 671.98 200.945 671.98 200.281C671.98 199.773 671.843 199.383 671.57 199.109C671.296 198.797 670.945 198.641 670.515 198.641C669.89 198.641 669.167 198.895 668.347 199.402C665.456 201.121 662.273 204.07 658.796 208.25C653.796 214.266 650.476 218.582 648.835 221.199C644.734 227.684 641.159 234.305 638.112 241.062C637.644 242.156 637.077 242.957 636.413 243.465C635.593 243.582 634.968 243.641 634.538 243.641C634.03 243.641 633.249 243.543 632.195 243.348C632.038 243.035 631.96 242.781 631.96 242.586C631.96 242.273 632.155 241.57 632.546 240.477C633.405 237.938 635.515 232.586 638.874 224.422L640.222 221.258L647.722 201.395ZM719.912 199.578C720.302 198.914 720.556 198.387 720.673 197.996C721.142 196.824 721.611 196.062 722.08 195.711C723.173 195.594 723.974 195.535 724.482 195.535C725.146 195.535 725.791 195.672 726.416 195.945L726.591 196.648C726.591 196.883 726.494 197.234 726.298 197.703C726.181 197.938 725.927 198.68 725.537 199.93L725.068 201.102L721.201 211.59C719.56 216.316 718.115 220.086 716.865 222.898C715.654 225.711 714.599 228.582 713.701 231.512C712.802 234.402 711.982 236.473 711.24 237.723L711.005 238.309C711.005 238.543 711.22 238.855 711.65 239.246C713.408 238.27 714.892 237.215 716.103 236.082C719.228 233.152 721.084 231.336 721.67 230.633C722.099 230.125 722.509 229.656 722.9 229.227C723.369 229.617 723.798 230.027 724.189 230.457C723.095 231.98 721.259 234.051 718.681 236.668C716.103 239.285 713.779 241.141 711.709 242.234C710.107 243.055 708.603 243.465 707.197 243.465C706.298 243.465 705.615 243.27 705.146 242.879C704.716 242.488 704.502 241.98 704.502 241.355C704.502 240.809 704.697 239.793 705.088 238.309C706.064 235.73 706.748 234.031 707.138 233.211C707.529 232.391 708.056 231.121 708.72 229.402C709.111 228.348 709.912 226.512 711.123 223.895C710.38 224.637 709.463 225.73 708.369 227.176C705.205 231.16 701.572 234.93 697.47 238.484C696.533 239.305 694.267 240.613 690.673 242.41C689.345 242.918 687.783 243.25 685.986 243.406C684.463 243.367 683.447 243.211 682.939 242.938C682.002 242.43 681.24 241.629 680.654 240.535C680.224 239.715 680.009 238.445 680.009 236.727C680.009 234.227 680.556 231.453 681.65 228.406C683.525 223.211 685.42 219.363 687.334 216.863C690.615 212.527 693.857 209.09 697.06 206.551C700.302 204.012 703.271 202.156 705.966 200.984C709.521 199.422 712.607 198.641 715.224 198.641C716.084 198.641 716.904 198.719 717.685 198.875C718.466 199.031 719.209 199.266 719.912 199.578ZM692.021 238.016C692.959 237.781 693.779 237.449 694.482 237.02C694.912 236.785 696.435 235.711 699.052 233.797C703.818 228.992 706.513 226.238 707.138 225.535C708.505 224.012 710.048 221.922 711.767 219.266C712.236 218.602 713.232 216.766 714.755 213.758L716.279 209.715C716.826 207.332 717.099 205.965 717.099 205.613C717.099 204.52 716.65 203.484 715.752 202.508C715.166 201.922 714.209 201.629 712.88 201.629C711.357 201.629 710.048 201.883 708.955 202.391C706.494 203.562 704.248 205.047 702.216 206.844C699.482 209.305 696.845 212.469 694.306 216.336C691.767 220.164 689.97 223.367 688.916 225.945C687.47 229.5 686.748 232.156 686.748 233.914C686.748 235.359 687.041 236.434 687.627 237.137C688.213 237.84 688.955 238.191 689.853 238.191C690.166 238.191 690.888 238.133 692.021 238.016ZM748.391 166.18L748.566 164.539C753.332 164.188 756.945 164.012 759.406 164.012H761.984V164.832L760.168 170.516C760.09 170.672 758.664 174.285 755.891 181.355L747.98 201.98C746.574 205.848 744.23 211.824 740.949 219.91L739.016 225.008C737.648 228.719 736.555 231.219 735.734 232.508C734.445 234.617 733.801 236.18 733.801 237.195L734.035 238.133C735.324 238.016 736.984 237.137 739.016 235.496C741.984 233.191 744.68 230.242 747.102 226.648C747.883 226.492 748.488 226.414 748.918 226.414L749.621 226.473C748.098 229.324 746.457 231.648 744.699 233.445C741.926 236.258 740.012 238.035 738.957 238.777C736.613 240.496 734.367 241.805 732.219 242.703C730.852 243.289 729.504 243.582 728.176 243.582C727.473 243.582 726.945 243.406 726.594 243.055C726.242 242.703 726.066 242.254 726.066 241.707C726.066 239.871 729.191 231.805 735.441 217.508C737.355 213.172 739.348 208.211 741.418 202.625C745.051 192.859 747.844 185.906 749.797 181.766C751.75 177.625 753.176 173.895 754.074 170.574C754.152 170.223 754.191 169.93 754.191 169.695C754.191 169.109 753.918 168.562 753.371 168.055C752.668 167.43 751.008 166.805 748.391 166.18ZM23.48 393V318H0.32V303.6H62.72V318H39.92V393H23.48ZM56.9825 393L87.8225 303.6H108.943L139.783 393H122.023L115.662 373.8H81.1025L74.6225 393H56.9825ZM85.7825 359.4H110.983L96.1025 314.88H100.663L85.7825 359.4ZM178.08 394.44C172.4 394.44 167.12 393.4 162.24 391.32C157.44 389.24 153.28 386.36 149.76 382.68C146.32 378.92 143.8 374.56 142.2 369.6L155.76 363.72C157.92 368.84 161.04 372.88 165.12 375.84C169.2 378.72 173.8 380.16 178.92 380.16C181.8 380.16 184.28 379.72 186.36 378.84C188.52 377.88 190.16 376.6 191.28 375C192.48 373.4 193.08 371.48 193.08 369.24C193.08 366.6 192.28 364.44 190.68 362.76C189.16 361 186.84 359.64 183.72 358.68L166.56 353.16C159.6 351 154.36 347.76 150.84 343.44C147.32 339.12 145.56 334.04 145.56 328.2C145.56 323.08 146.8 318.56 149.28 314.64C151.84 310.72 155.36 307.68 159.84 305.52C164.4 303.28 169.6 302.16 175.44 302.16C180.8 302.16 185.72 303.12 190.2 305.04C194.68 306.88 198.52 309.48 201.72 312.84C205 316.12 207.44 320 209.04 324.48L195.6 330.48C193.84 326 191.2 322.56 187.68 320.16C184.16 317.68 180.08 316.44 175.44 316.44C172.72 316.44 170.32 316.92 168.24 317.88C166.16 318.76 164.52 320.04 163.32 321.72C162.2 323.32 161.64 325.24 161.64 327.48C161.64 329.96 162.44 332.16 164.04 334.08C165.64 335.92 168.08 337.36 171.36 338.4L187.8 343.56C194.92 345.88 200.24 349.08 203.76 353.16C207.36 357.24 209.16 362.28 209.16 368.28C209.16 373.4 207.84 377.92 205.2 381.84C202.56 385.76 198.92 388.84 194.28 391.08C189.64 393.32 184.24 394.44 178.08 394.44ZM237.296 393V318H214.136V303.6H276.536V318H253.736V393H237.296ZM284.095 393V303.6H343.495V318H300.415V340.92H341.095V355.32H300.415V378.6H343.495V393H284.095Z" fill="#201610"/>
</svg>
