<svg width="933" height="566" viewBox="0 0 933 566" fill="none" xmlns="http://www.w3.org/2000/svg">
<path fill-rule="evenodd" clip-rule="evenodd" d="M301.459 3.1477C392.211 0.0411572 476.904 46.2197 532.77 115.069C587.895 183.005 607.555 271.271 587.097 355.167C566.791 438.436 509.256 510.42 427.925 545.021C349.529 578.372 261.972 561.315 184.242 526.552C104.854 491.049 27.0282 439.071 7.49378 356.995C-12.0514 274.874 35.2356 196.046 89.9151 130.228C144.515 64.5061 214.042 6.14011 301.459 3.1477Z" stroke="#201610" stroke-width="5"/>
<path d="M53.64 226V136.6H69.24L102.72 182.08H95.28L128.04 136.6H143.64V226H127.2V155.2L133.56 156.76L99.6 202H97.68L64.56 156.76L69.96 155.2V226H53.64ZM202.389 227.44C195.829 227.44 189.709 226.28 184.029 223.96C178.349 221.64 173.389 218.4 169.149 214.24C164.909 210.08 161.589 205.2 159.189 199.6C156.869 193.92 155.709 187.8 155.709 181.24C155.709 174.6 156.869 168.48 159.189 162.88C161.509 157.28 164.789 152.4 169.029 148.24C173.269 144.08 178.229 140.88 183.909 138.64C189.589 136.32 195.749 135.16 202.389 135.16C209.029 135.16 215.189 136.32 220.869 138.64C226.549 140.96 231.509 144.2 235.749 148.36C239.989 152.44 243.269 157.28 245.589 162.88C247.989 168.48 249.189 174.6 249.189 181.24C249.189 187.8 247.989 193.92 245.589 199.6C243.189 205.2 239.869 210.08 235.629 214.24C231.389 218.4 226.429 221.64 220.749 223.96C215.149 226.28 209.029 227.44 202.389 227.44ZM202.389 212.56C206.789 212.56 210.829 211.8 214.509 210.28C218.189 208.68 221.389 206.48 224.109 203.68C226.909 200.88 229.029 197.56 230.469 193.72C231.989 189.88 232.749 185.72 232.749 181.24C232.749 176.76 231.989 172.64 230.469 168.88C229.029 165.04 226.909 161.72 224.109 158.92C221.389 156.04 218.189 153.84 214.509 152.32C210.829 150.8 206.789 150.04 202.389 150.04C198.069 150.04 194.069 150.8 190.389 152.32C186.709 153.84 183.469 156.04 180.669 158.92C177.949 161.72 175.829 165.04 174.309 168.88C172.789 172.64 172.029 176.76 172.029 181.24C172.029 185.72 172.789 189.88 174.309 193.72C175.829 197.56 177.949 200.88 180.669 203.68C183.469 206.48 186.709 208.68 190.389 210.28C194.069 211.8 198.069 212.56 202.389 212.56ZM261.301 226V136.6H290.461C299.901 136.6 308.101 138.52 315.061 142.36C322.101 146.12 327.541 151.36 331.381 158.08C335.221 164.72 337.141 172.44 337.141 181.24C337.141 189.96 335.221 197.72 331.381 204.52C327.541 211.24 322.101 216.52 315.061 220.36C308.101 224.12 299.901 226 290.461 226H261.301ZM277.621 211.6H290.821C296.901 211.6 302.141 210.36 306.541 207.88C311.021 205.32 314.501 201.8 316.981 197.32C319.461 192.76 320.701 187.4 320.701 181.24C320.701 175 319.461 169.64 316.981 165.16C314.501 160.68 311.021 157.2 306.541 154.72C302.141 152.24 296.901 151 290.821 151H277.621V211.6ZM347.729 226V136.6H407.129V151H364.049V173.92H404.729V188.32H364.049V211.6H407.129V226H347.729ZM416.696 226V136.6H449.936C456.016 136.6 461.376 137.72 466.016 139.96C470.736 142.12 474.416 145.32 477.056 149.56C479.696 153.72 481.016 158.8 481.016 164.8C481.016 170.96 479.536 176.2 476.576 180.52C473.696 184.84 469.776 188.04 464.816 190.12L485.336 226H466.856L444.896 186.76L455.456 193H433.016V226H416.696ZM433.016 178.6H450.176C453.136 178.6 455.696 178.04 457.856 176.92C460.016 175.72 461.696 174.08 462.896 172C464.096 169.92 464.696 167.52 464.696 164.8C464.696 162 464.096 159.6 462.896 157.6C461.696 155.52 460.016 153.92 457.856 152.8C455.696 151.6 453.136 151 450.176 151H433.016V178.6ZM493.632 226V136.6H506.352L555.552 202.84L548.952 204.16V136.6H565.272V226H552.432L503.952 159.28L509.952 157.96V226H493.632ZM591.786 226L622.626 136.6H643.746L674.586 226H656.826L650.466 206.8H615.906L609.426 226H591.786ZM620.586 192.4H645.786L630.906 147.88H635.466L620.586 192.4ZM682.135 226V136.6H715.375C721.455 136.6 726.815 137.72 731.455 139.96C736.175 142.12 739.855 145.32 742.495 149.56C745.135 153.72 746.455 158.8 746.455 164.8C746.455 170.96 744.975 176.2 742.015 180.52C739.135 184.84 735.215 188.04 730.255 190.12L750.775 226H732.295L710.335 186.76L720.895 193H698.455V226H682.135ZM698.455 178.6H715.615C718.575 178.6 721.135 178.04 723.295 176.92C725.455 175.72 727.135 174.08 728.335 172C729.535 169.92 730.135 167.52 730.135 164.8C730.135 162 729.535 159.6 728.335 157.6C727.135 155.52 725.455 153.92 723.295 152.8C721.135 151.6 718.575 151 715.615 151H698.455V178.6ZM772.568 226V151H749.408V136.6H811.808V151H789.008V226H772.568ZM70.32 377L46.32 287.6H63.84L82.68 363.8H78.12L97.8 287.6H114.72L134.28 363.8H129.72L148.56 287.6H166.08L142.08 377H123.36L103.56 302.84H108.84L89.04 377H70.32ZM173.584 377V287.6H189.904V377H173.584ZM220.539 377V302H197.379V287.6H259.779V302H236.979V377H220.539ZM267.338 377V287.6H283.658V326.6H321.698V287.6H338.138V377H321.698V341H283.658V377H267.338ZM379.465 298.777C379.66 299.441 380.129 299.988 380.871 300.418C381.809 300.965 383.234 301.238 385.148 301.238L390.188 301.18L392.473 301.355L397.277 301.238L403.605 301.297L407.883 301.062L413.684 301.238L418.605 301.004C419.152 301.004 419.797 301.023 420.539 301.062C422.844 301.141 424.23 301.18 424.699 301.18C425.246 301.18 426.105 301.16 427.277 301.121C428.449 301.043 430.871 300.984 434.543 300.945C438.215 300.867 440.988 300.125 442.863 298.719L443.801 298.895H445.09C444.387 302.762 443.664 305.984 442.922 308.562C442.531 310.047 442.258 311.258 442.102 312.195C441.984 312.898 441.77 313.973 441.457 315.418C440.598 315.379 439.836 315.281 439.172 315.125C439.133 310.672 438.273 307.605 436.594 305.926C434.914 304.246 431.691 303.406 426.926 303.406C422.746 303.406 418.938 303.602 415.5 303.992C414.445 304.148 413.605 304.344 412.98 304.578C412.824 305.008 412.688 305.398 412.57 305.75C412.062 307.703 411.262 313.25 410.168 322.391C409.855 325.164 408.391 333.797 405.773 348.289L401.438 369.5C401.281 370.555 401.164 371.199 401.086 371.434C400.852 372.293 400.734 372.918 400.734 373.309C400.734 373.855 400.949 374.266 401.379 374.539C402.199 375.008 403.801 375.262 406.184 375.301C406.73 375.301 408.234 375.398 410.695 375.594C412.219 375.711 413.098 375.828 413.332 375.945C413.488 376.023 413.625 376.18 413.742 376.414L413.449 378.289C410.793 378.25 408.664 378.133 407.062 377.938C405.461 377.742 404.172 377.645 403.195 377.645C396.711 377.645 388.781 377.82 379.406 378.172C379.641 377.312 379.953 376.531 380.344 375.828C382.297 375.555 384.426 375.359 386.73 375.242C387.277 375.086 388 374.91 388.898 374.715C390.227 374.441 391.066 374.168 391.418 373.895C391.77 373.582 392.082 373.094 392.355 372.43C393.527 369.539 394.777 363.172 396.105 353.328L401.496 323.152C403.215 313.426 404.152 307.059 404.309 304.051C403.137 303.855 401.867 303.758 400.5 303.758C393.117 303.758 388.273 304.031 385.969 304.578C383.664 305.125 381.73 306.023 380.168 307.273C378.645 308.484 376.457 311.102 373.605 315.125C372.902 315.008 372.219 314.93 371.555 314.891C371.867 313.836 372.219 312.84 372.609 311.902C374.328 307.684 375.812 303.289 377.062 298.719H378.703L379.465 298.777ZM447.084 333.934C445.795 334.871 444.584 335.965 443.452 337.215C443.139 337.566 441.362 339.91 438.12 344.246L435.717 344.363C436.694 342.254 438.51 339.656 441.166 336.57C443.823 333.484 446.127 331.375 448.08 330.242C449.33 329.5 450.737 329.07 452.299 328.953C453.276 329.227 453.94 329.598 454.291 330.066C454.682 330.535 454.877 331.102 454.877 331.766C454.877 332.43 454.799 333.094 454.643 333.758C454.213 335.906 453.354 338.973 452.065 342.957C450.776 346.941 449.623 350.086 448.608 352.391L445.561 359.598L445.327 360.652C445.873 359.715 446.987 357.625 448.666 354.383C455.034 342.312 459.623 334.852 462.436 332C464.506 329.969 466.928 328.953 469.702 328.953C471.264 328.953 472.729 329.578 474.096 330.828C475.112 331.805 475.62 333.094 475.62 334.695C475.62 336.492 475.053 338.035 473.92 339.324C473.139 340.223 472.026 340.672 470.58 340.672C469.37 340.672 468.51 340.398 468.002 339.852C467.534 339.266 467.241 337.84 467.123 335.574C466.616 334.559 466.049 334.051 465.424 334.051C464.799 334.051 464.135 334.383 463.432 335.047C461.557 336.727 458.022 342.117 452.827 351.219C447.631 360.281 444.37 366.59 443.041 370.145C441.752 373.66 440.698 376.082 439.877 377.41C439.448 378.074 438.647 378.406 437.475 378.406C436.42 378.406 435.659 378.211 435.19 377.82C434.76 377.469 434.545 377 434.545 376.414C434.545 375.633 434.741 374.734 435.131 373.719C436.811 369.617 439.506 362.059 443.217 351.043L447.319 338.504C447.592 337.371 447.788 336.648 447.905 336.336L448.256 335.457C448.256 335.066 447.866 334.559 447.084 333.934ZM506.266 334.578C506.657 333.914 506.911 333.387 507.028 332.996C507.497 331.824 507.966 331.062 508.434 330.711C509.528 330.594 510.329 330.535 510.837 330.535C511.501 330.535 512.145 330.672 512.77 330.945L512.946 331.648C512.946 331.883 512.848 332.234 512.653 332.703C512.536 332.938 512.282 333.68 511.891 334.93L511.423 336.102L507.555 346.59C505.915 351.316 504.47 355.086 503.22 357.898C502.009 360.711 500.954 363.582 500.055 366.512C499.157 369.402 498.337 371.473 497.595 372.723L497.36 373.309C497.36 373.543 497.575 373.855 498.005 374.246C499.763 373.27 501.247 372.215 502.458 371.082C505.583 368.152 507.438 366.336 508.024 365.633C508.454 365.125 508.864 364.656 509.255 364.227C509.723 364.617 510.153 365.027 510.544 365.457C509.45 366.98 507.614 369.051 505.036 371.668C502.458 374.285 500.134 376.141 498.063 377.234C496.462 378.055 494.958 378.465 493.552 378.465C492.653 378.465 491.97 378.27 491.501 377.879C491.071 377.488 490.856 376.98 490.856 376.355C490.856 375.809 491.052 374.793 491.442 373.309C492.419 370.73 493.102 369.031 493.493 368.211C493.884 367.391 494.411 366.121 495.075 364.402C495.466 363.348 496.266 361.512 497.477 358.895C496.735 359.637 495.817 360.73 494.723 362.176C491.559 366.16 487.927 369.93 483.825 373.484C482.888 374.305 480.622 375.613 477.028 377.41C475.7 377.918 474.138 378.25 472.341 378.406C470.817 378.367 469.802 378.211 469.294 377.938C468.356 377.43 467.595 376.629 467.009 375.535C466.579 374.715 466.364 373.445 466.364 371.727C466.364 369.227 466.911 366.453 468.005 363.406C469.88 358.211 471.774 354.363 473.688 351.863C476.97 347.527 480.212 344.09 483.415 341.551C486.657 339.012 489.626 337.156 492.321 335.984C495.876 334.422 498.962 333.641 501.579 333.641C502.438 333.641 503.259 333.719 504.04 333.875C504.821 334.031 505.563 334.266 506.266 334.578ZM478.376 373.016C479.313 372.781 480.134 372.449 480.837 372.02C481.266 371.785 482.79 370.711 485.407 368.797C490.173 363.992 492.868 361.238 493.493 360.535C494.86 359.012 496.403 356.922 498.122 354.266C498.591 353.602 499.587 351.766 501.11 348.758L502.634 344.715C503.18 342.332 503.454 340.965 503.454 340.613C503.454 339.52 503.005 338.484 502.106 337.508C501.52 336.922 500.563 336.629 499.235 336.629C497.712 336.629 496.403 336.883 495.309 337.391C492.848 338.562 490.602 340.047 488.571 341.844C485.837 344.305 483.2 347.469 480.661 351.336C478.122 355.164 476.325 358.367 475.27 360.945C473.825 364.5 473.102 367.156 473.102 368.914C473.102 370.359 473.395 371.434 473.981 372.137C474.567 372.84 475.309 373.191 476.208 373.191C476.52 373.191 477.243 373.133 478.376 373.016ZM551.737 335.398L558.066 315.184C558.339 314.324 558.73 312.918 559.237 310.965C559.316 310.574 559.394 310.262 559.472 310.027C560.292 307.449 560.702 305.809 560.702 305.105C560.702 304.598 560.448 304.129 559.941 303.699C558.886 302.879 557.109 302.176 554.609 301.59L553.378 301.238L553.847 299.598C560.487 299.598 564.902 299.148 567.089 298.25L567.792 298.191C568.261 298.191 568.769 298.27 569.316 298.426C569.042 299.598 568.847 300.398 568.73 300.828L568.671 301.18L563.808 315.711L557.948 334.461C556.894 337.664 556.191 340.027 555.839 341.551C555.331 343.816 554.745 345.926 554.081 347.879L545.761 372.781L545.937 373.133C547.343 372.898 550.937 369.598 556.718 363.23C557.343 363.504 557.812 363.855 558.124 364.285C554.882 369.168 551.249 373.113 547.226 376.121C544.335 378.27 542.167 379.344 540.722 379.344C540.409 379.344 539.98 379.266 539.433 379.109C539.198 378.758 539.081 378.445 539.081 378.172C539.081 377 539.745 374.285 541.073 370.027C542.402 365.77 543.32 362.684 543.827 360.77C542.773 361.746 541.23 363.367 539.198 365.633C535.331 369.969 531.249 373.543 526.952 376.355C523.866 378.387 521.073 379.402 518.573 379.402C517.206 379.402 516.132 378.855 515.351 377.762C514.101 376.082 513.476 373.719 513.476 370.672C513.476 366.883 514.335 362.977 516.054 358.953C517.07 356.492 518.749 353.328 521.093 349.461C523.476 345.594 526.112 342.234 529.003 339.383C531.933 336.492 534.706 334.422 537.323 333.172C539.98 331.883 542.382 331.238 544.53 331.238C546.21 331.238 547.695 331.629 548.984 332.41C549.843 332.918 550.761 333.914 551.737 335.398ZM524.96 373.367C526.523 373.367 528.339 372.645 530.409 371.199C534.198 368.543 537.753 365.027 541.073 360.652C544.433 356.238 546.777 351.844 548.105 347.469C549.472 343.094 550.155 340.496 550.155 339.676C550.155 338.426 549.667 337.234 548.691 336.102C547.714 334.969 546.816 334.402 545.995 334.402C544.55 334.402 542.792 334.91 540.722 335.926C538.691 336.941 536.542 338.68 534.277 341.141C532.987 342.508 531.015 345.359 528.359 349.695C525.702 354.031 523.73 357.762 522.441 360.887C521.152 364.012 520.507 366.414 520.507 368.094C520.507 369.734 520.917 371.023 521.737 371.961C522.597 372.898 523.671 373.367 524.96 373.367ZM579.396 307.684C579.396 306.316 579.923 305.105 580.978 304.051C582.033 302.957 583.263 302.41 584.67 302.41C585.998 302.41 587.13 302.879 588.068 303.816C589.005 304.754 589.474 305.828 589.474 307.039C589.474 308.602 588.888 310.027 587.716 311.316C587.013 312.059 585.724 312.43 583.849 312.43C582.599 312.43 581.545 312 580.685 311.141C579.826 310.281 579.396 309.129 579.396 307.684ZM577.111 333.992C576.291 333.992 575.685 334.051 575.295 334.168C573.459 335.145 572.111 335.984 571.252 336.688C569.494 338.055 567.834 339.656 566.271 341.492L562.873 342.254C565.88 338.191 569.22 335.008 572.892 332.703C576.564 330.398 579.455 329.246 581.564 329.246C582.462 329.246 583.127 329.48 583.556 329.949C584.025 330.379 584.259 330.945 584.259 331.648C584.259 333.562 583.166 336.746 580.978 341.199C580.705 341.746 580.06 343.152 579.045 345.418C576.701 350.535 574.201 355.379 571.545 359.949C570.685 361.434 569.748 363.191 568.732 365.223C568.185 366.316 567.697 367.234 567.267 367.977C566.056 370.008 565.451 371.512 565.451 372.488C565.451 372.762 565.548 373.016 565.744 373.25C565.978 373.445 566.252 373.543 566.564 373.543C566.994 373.543 567.619 373.309 568.439 372.84C569.806 372.059 571.427 370.77 573.302 368.973C575.216 367.137 576.896 365.047 578.341 362.703H580.744C579.611 364.812 577.931 367.234 575.705 369.969C573.517 372.703 571.017 374.891 568.205 376.531C566.095 377.781 564.22 378.406 562.58 378.406C561.33 378.406 560.412 378.133 559.826 377.586C559.24 377.078 558.947 376.395 558.947 375.535C558.947 372.527 561.154 366.863 565.568 358.543L575.002 340.73C575.978 338.895 576.662 337.449 577.052 336.395C577.287 335.73 577.404 335.281 577.404 335.047C577.404 334.852 577.306 334.5 577.111 333.992ZM601.254 334.402H597.855L596.215 334.344L592.406 334.461H591.645C591.723 333.602 592.055 332.605 592.641 331.473C598.266 331.316 601.605 331.18 602.66 331.062C603.441 329.188 604.105 327.684 604.652 326.551C605.824 324.012 607.035 321.004 608.285 317.527C608.676 316.395 609.105 315.359 609.574 314.422C610.434 314.305 611.43 314.246 612.562 314.246C613.5 314.246 614.398 314.344 615.258 314.539L615.375 315.477C615.375 316.219 613.617 320.516 610.102 328.367C609.711 329.266 609.379 330.184 609.105 331.121C610.238 331.316 610.902 331.414 611.098 331.414H612.328L614.32 331.473L619.945 331.355C619.945 332.645 619.711 333.699 619.242 334.52C617.68 334.676 615.629 334.754 613.09 334.754C611.84 334.754 611.039 334.773 610.688 334.812C608.695 335.008 607.543 335.203 607.23 335.398L597.504 358.133C596.488 360.359 594.691 364.598 592.113 370.848C592.113 371.082 592.23 371.355 592.465 371.668L593.227 371.785C594.281 371.785 595.59 371.121 597.152 369.793C600.629 366.863 603.91 363.445 606.996 359.539C607.66 359.891 608.246 360.301 608.754 360.77C604.809 365.496 602.035 368.621 600.434 370.145C598.832 371.629 596.801 373.191 594.34 374.832C591.879 376.434 590.395 377.332 589.887 377.527C588.988 377.879 588.07 378.055 587.133 378.055C586.156 378.055 585.434 377.84 584.965 377.41C584.496 377.02 584.262 376.434 584.262 375.652C584.262 374.52 585.219 371.883 587.133 367.742L589.652 362.293L598.5 341.492C599.633 338.797 600.551 336.434 601.254 334.402ZM632.135 307.684C632.135 306.316 632.662 305.105 633.717 304.051C634.772 302.957 636.002 302.41 637.409 302.41C638.737 302.41 639.87 302.879 640.807 303.816C641.745 304.754 642.213 305.828 642.213 307.039C642.213 308.602 641.627 310.027 640.455 311.316C639.752 312.059 638.463 312.43 636.588 312.43C635.338 312.43 634.284 312 633.424 311.141C632.565 310.281 632.135 309.129 632.135 307.684ZM629.85 333.992C629.03 333.992 628.424 334.051 628.034 334.168C626.198 335.145 624.85 335.984 623.991 336.688C622.233 338.055 620.573 339.656 619.01 341.492L615.612 342.254C618.62 338.191 621.959 335.008 625.631 332.703C629.303 330.398 632.194 329.246 634.303 329.246C635.202 329.246 635.866 329.48 636.295 329.949C636.764 330.379 636.998 330.945 636.998 331.648C636.998 333.562 635.905 336.746 633.717 341.199C633.444 341.746 632.799 343.152 631.784 345.418C629.44 350.535 626.94 355.379 624.284 359.949C623.424 361.434 622.487 363.191 621.471 365.223C620.924 366.316 620.436 367.234 620.006 367.977C618.795 370.008 618.19 371.512 618.19 372.488C618.19 372.762 618.287 373.016 618.483 373.25C618.717 373.445 618.991 373.543 619.303 373.543C619.733 373.543 620.358 373.309 621.178 372.84C622.545 372.059 624.166 370.77 626.041 368.973C627.955 367.137 629.635 365.047 631.08 362.703H633.483C632.35 364.812 630.67 367.234 628.444 369.969C626.256 372.703 623.756 374.891 620.944 376.531C618.834 377.781 616.959 378.406 615.319 378.406C614.069 378.406 613.151 378.133 612.565 377.586C611.979 377.078 611.686 376.395 611.686 375.535C611.686 372.527 613.893 366.863 618.307 358.543L627.741 340.73C628.717 338.895 629.401 337.449 629.791 336.395C630.026 335.73 630.143 335.281 630.143 335.047C630.143 334.852 630.045 334.5 629.85 333.992ZM674.97 343.719C674.97 352.781 672.216 360.828 666.708 367.859C661.239 374.891 655.555 378.406 649.657 378.406C646.493 378.406 643.934 377.234 641.981 374.891C640.028 372.508 639.052 368.797 639.052 363.758C639.052 360.359 639.813 356.453 641.337 352.039C642.86 347.586 644.833 343.895 647.255 340.965C647.802 340.301 648.427 339.5 649.13 338.562C651.2 335.867 653.661 333.602 656.513 331.766C659.364 329.93 662.274 329.012 665.243 329.012C667.977 329.012 670.282 330.164 672.157 332.469C674.032 334.734 674.97 338.484 674.97 343.719ZM644.501 370.379C644.501 372.176 644.911 373.504 645.731 374.363C646.591 375.223 647.958 375.652 649.833 375.652C651.669 375.652 653.524 374.754 655.399 372.957C658.759 369.676 662.118 364.031 665.477 356.023C668.837 348.016 670.516 341.707 670.516 337.098C670.516 335.457 670.106 334.168 669.286 333.23C668.466 332.254 667.528 331.766 666.473 331.766C664.169 331.766 661.766 333.113 659.266 335.809C655.009 340.34 651.337 346.59 648.251 354.559C645.751 361.043 644.501 366.316 644.501 370.379ZM693.722 336.395C693.644 336.082 693.527 335.867 693.37 335.75C693.253 335.633 693.097 335.574 692.902 335.574C690.87 335.574 687.706 338.777 683.409 345.184C682.98 345.223 682.667 345.242 682.472 345.242C682.237 345.242 681.847 345.223 681.3 345.184C682.12 343.543 683.448 341.473 685.284 338.973C687.159 336.473 689.132 334.402 691.202 332.762C693.312 331.082 695.304 329.832 697.179 329.012C697.804 328.738 698.37 328.602 698.878 328.602C699.073 328.602 699.366 328.621 699.757 328.66C700.46 329.363 700.812 330.086 700.812 330.828C700.812 331.297 700.753 331.766 700.636 332.234C700.558 332.703 700.362 333.426 700.05 334.402C698.878 337.762 698.019 340.125 697.472 341.492L694.132 350.164C693.351 352.156 692.589 354.266 691.847 356.492C692.159 356.102 692.433 355.73 692.667 355.379C696.3 350.066 700.206 344.988 704.386 340.145C708.605 335.262 712.081 332 714.816 330.359C716.769 329.148 718.624 328.543 720.382 328.543C721.71 328.543 722.745 328.914 723.487 329.656C724.23 330.359 724.601 331.277 724.601 332.41C724.601 333.113 724.523 333.797 724.366 334.461C724.093 335.945 723.487 338.016 722.55 340.672C721.612 343.328 719.152 349.09 715.167 357.957L709.308 371.492L709.073 372.254C709.073 372.488 709.21 372.84 709.484 373.309C711.671 372.84 714.952 369.363 719.327 362.879L721.73 362.938C720.519 365.125 718.527 367.938 715.753 371.375C713.605 373.992 711.3 376.023 708.839 377.469C707.472 378.289 706.007 378.699 704.445 378.699C703.507 378.699 702.804 378.504 702.335 378.113C701.866 377.723 701.632 377.293 701.632 376.824C701.632 374.754 702.628 371.551 704.62 367.215L713.116 348.641L716.398 340.848C717.14 339.129 717.589 337.938 717.745 337.273C717.902 336.609 717.98 335.945 717.98 335.281C717.98 334.773 717.843 334.383 717.57 334.109C717.296 333.797 716.945 333.641 716.515 333.641C715.89 333.641 715.167 333.895 714.347 334.402C711.456 336.121 708.273 339.07 704.796 343.25C699.796 349.266 696.476 353.582 694.835 356.199C690.734 362.684 687.159 369.305 684.112 376.062C683.644 377.156 683.077 377.957 682.413 378.465C681.593 378.582 680.968 378.641 680.538 378.641C680.03 378.641 679.249 378.543 678.195 378.348C678.038 378.035 677.96 377.781 677.96 377.586C677.96 377.273 678.155 376.57 678.546 375.477C679.405 372.938 681.515 367.586 684.874 359.422L686.222 356.258L693.722 336.395ZM765.912 334.578C766.302 333.914 766.556 333.387 766.673 332.996C767.142 331.824 767.611 331.062 768.08 330.711C769.173 330.594 769.974 330.535 770.482 330.535C771.146 330.535 771.791 330.672 772.416 330.945L772.591 331.648C772.591 331.883 772.494 332.234 772.298 332.703C772.181 332.938 771.927 333.68 771.537 334.93L771.068 336.102L767.201 346.59C765.56 351.316 764.115 355.086 762.865 357.898C761.654 360.711 760.599 363.582 759.701 366.512C758.802 369.402 757.982 371.473 757.24 372.723L757.005 373.309C757.005 373.543 757.22 373.855 757.65 374.246C759.408 373.27 760.892 372.215 762.103 371.082C765.228 368.152 767.084 366.336 767.67 365.633C768.099 365.125 768.509 364.656 768.9 364.227C769.369 364.617 769.798 365.027 770.189 365.457C769.095 366.98 767.259 369.051 764.681 371.668C762.103 374.285 759.779 376.141 757.709 377.234C756.107 378.055 754.603 378.465 753.197 378.465C752.298 378.465 751.615 378.27 751.146 377.879C750.716 377.488 750.502 376.98 750.502 376.355C750.502 375.809 750.697 374.793 751.088 373.309C752.064 370.73 752.748 369.031 753.138 368.211C753.529 367.391 754.056 366.121 754.72 364.402C755.111 363.348 755.912 361.512 757.123 358.895C756.38 359.637 755.463 360.73 754.369 362.176C751.205 366.16 747.572 369.93 743.47 373.484C742.533 374.305 740.267 375.613 736.673 377.41C735.345 377.918 733.783 378.25 731.986 378.406C730.463 378.367 729.447 378.211 728.939 377.938C728.002 377.43 727.24 376.629 726.654 375.535C726.224 374.715 726.009 373.445 726.009 371.727C726.009 369.227 726.556 366.453 727.65 363.406C729.525 358.211 731.42 354.363 733.334 351.863C736.615 347.527 739.857 344.09 743.06 341.551C746.302 339.012 749.271 337.156 751.966 335.984C755.521 334.422 758.607 333.641 761.224 333.641C762.084 333.641 762.904 333.719 763.685 333.875C764.466 334.031 765.209 334.266 765.912 334.578ZM738.021 373.016C738.959 372.781 739.779 372.449 740.482 372.02C740.912 371.785 742.435 370.711 745.052 368.797C749.818 363.992 752.513 361.238 753.138 360.535C754.505 359.012 756.048 356.922 757.767 354.266C758.236 353.602 759.232 351.766 760.755 348.758L762.279 344.715C762.826 342.332 763.099 340.965 763.099 340.613C763.099 339.52 762.65 338.484 761.752 337.508C761.166 336.922 760.209 336.629 758.88 336.629C757.357 336.629 756.048 336.883 754.955 337.391C752.494 338.562 750.248 340.047 748.216 341.844C745.482 344.305 742.845 347.469 740.306 351.336C737.767 355.164 735.97 358.367 734.916 360.945C733.47 364.5 732.748 367.156 732.748 368.914C732.748 370.359 733.041 371.434 733.627 372.137C734.213 372.84 734.955 373.191 735.853 373.191C736.166 373.191 736.888 373.133 738.021 373.016ZM794.391 301.18L794.566 299.539C799.332 299.188 802.945 299.012 805.406 299.012H807.984V299.832L806.168 305.516C806.09 305.672 804.664 309.285 801.891 316.355L793.98 336.98C792.574 340.848 790.23 346.824 786.949 354.91L785.016 360.008C783.648 363.719 782.555 366.219 781.734 367.508C780.445 369.617 779.801 371.18 779.801 372.195L780.035 373.133C781.324 373.016 782.984 372.137 785.016 370.496C787.984 368.191 790.68 365.242 793.102 361.648C793.883 361.492 794.488 361.414 794.918 361.414L795.621 361.473C794.098 364.324 792.457 366.648 790.699 368.445C787.926 371.258 786.012 373.035 784.957 373.777C782.613 375.496 780.367 376.805 778.219 377.703C776.852 378.289 775.504 378.582 774.176 378.582C773.473 378.582 772.945 378.406 772.594 378.055C772.242 377.703 772.066 377.254 772.066 376.707C772.066 374.871 775.191 366.805 781.441 352.508C783.355 348.172 785.348 343.211 787.418 337.625C791.051 327.859 793.844 320.906 795.797 316.766C797.75 312.625 799.176 308.895 800.074 305.574C800.152 305.223 800.191 304.93 800.191 304.695C800.191 304.109 799.918 303.562 799.371 303.055C798.668 302.43 797.008 301.805 794.391 301.18ZM69.48 528V453H46.32V438.6H108.72V453H85.92V528H69.48ZM102.982 528L133.822 438.6H154.943L185.783 528H168.023L161.662 508.8H127.102L120.622 528H102.982ZM131.783 494.4H156.983L142.102 449.88H146.663L131.783 494.4ZM224.08 529.44C218.4 529.44 213.12 528.4 208.24 526.32C203.44 524.24 199.28 521.36 195.76 517.68C192.32 513.92 189.8 509.56 188.2 504.6L201.76 498.72C203.92 503.84 207.04 507.88 211.12 510.84C215.2 513.72 219.8 515.16 224.92 515.16C227.8 515.16 230.28 514.72 232.36 513.84C234.52 512.88 236.16 511.6 237.28 510C238.48 508.4 239.08 506.48 239.08 504.24C239.08 501.6 238.28 499.44 236.68 497.76C235.16 496 232.84 494.64 229.72 493.68L212.56 488.16C205.6 486 200.36 482.76 196.84 478.44C193.32 474.12 191.56 469.04 191.56 463.2C191.56 458.08 192.8 453.56 195.28 449.64C197.84 445.72 201.36 442.68 205.84 440.52C210.4 438.28 215.6 437.16 221.44 437.16C226.8 437.16 231.72 438.12 236.2 440.04C240.68 441.88 244.52 444.48 247.72 447.84C251 451.12 253.44 455 255.04 459.48L241.6 465.48C239.84 461 237.2 457.56 233.68 455.16C230.16 452.68 226.08 451.44 221.44 451.44C218.72 451.44 216.32 451.92 214.24 452.88C212.16 453.76 210.52 455.04 209.32 456.72C208.2 458.32 207.64 460.24 207.64 462.48C207.64 464.96 208.44 467.16 210.04 469.08C211.64 470.92 214.08 472.36 217.36 473.4L233.8 478.56C240.92 480.88 246.24 484.08 249.76 488.16C253.36 492.24 255.16 497.28 255.16 503.28C255.16 508.4 253.84 512.92 251.2 516.84C248.56 520.76 244.92 523.84 240.28 526.08C235.64 528.32 230.24 529.44 224.08 529.44ZM283.296 528V453H260.136V438.6H322.536V453H299.736V528H283.296ZM330.095 528V438.6H389.495V453H346.415V475.92H387.095V490.32H346.415V513.6H389.495V528H330.095Z" fill="#201610"/>
</svg>
